<svg width="300" height="300" viewBox="0 0 300 300" fill="none" xmlns="http://www.w3.org/2000/svg">
<g clip-path="url(#clip0_7_4)">
<path d="M51.0965 56.2797L50 55.1494L77.7425 28.1398L50 1.13028L51.0965 -2.52682e-06L80 28.1398L51.0965 56.2797Z" fill="white"/>
<path d="M28.9035 0L30 1.13028L2.2575 28.1398L30 55.1494L28.9035 56.2797L0 28.1398L28.9035 0Z" fill="white"/>
<path d="M100.44 60H96.9766C96.6673 60 96.4165 60.1822 96.4165 60.407V70.2514C96.4165 70.4762 96.6673 70.6585 96.9766 70.6585H100.44C100.749 70.6585 101 70.4762 101 70.2514V60.407C101 60.1822 100.749 60 100.44 60Z" fill="white"/>
<path d="M94.0232 60H90.5601C90.2508 60 90 60.1822 90 60.407V70.2514C90 70.4762 90.2508 70.6585 90.5601 70.6585H94.0232C94.3326 70.6585 94.5833 70.4762 94.5833 70.2514V60.407C94.5833 60.1822 94.3326 60 94.0232 60Z" fill="white"/>
<path fill-rule="evenodd" clip-rule="evenodd" d="M60.2564 70.6395C60.1735 70.6795 60.0685 70.6542 60.022 70.5829C60.0076 70.5608 60.0001 70.5364 60 70.5116V60.1465C60 60.0666 60.077 60 60.1718 60C60.2014 60 60.231 60.0067 60.2564 60.0187L70.8245 65.0726C70.8784 65.1006 70.9227 65.1387 70.9533 65.1834C70.984 65.2282 71 65.2782 71 65.3291C71 65.3799 70.984 65.43 70.9533 65.4747C70.9227 65.5195 70.8784 65.5576 70.8245 65.5855L60.2555 70.6395H60.2564Z" fill="white"/>
<circle cx="7" cy="67" r="7" fill="white"/>
</g>
<defs>
<clipPath id="clip0_7_4">
<rect width="300" height="300" fill="white"/>
</clipPath>
</defs>
</svg>
